HIERARCHY
ROOT Hips
{
	OFFSET 56.877701 -32.693596 43.373703
	CHANNELS 6 Xposition Yposition Zposition Zrotation Xrotation Yrotation
	JOINT Chest
	{
		OFFSET -0.779999 1.005800 5.403099
		CHANNELS 6 Xposition Yposition Zposition Zrotation Xrotation Yrotation
		JOINT Chest2
		{
			OFFSET 0.000000 0.000000 4.236801
			CHANNELS 6 Xposition Yposition Zposition Zrotation Xrotation Yrotation
			JOINT Neck
			{
				OFFSET 0.000000 0.000000 9.874401
				CHANNELS 6 Xposition Yposition Zposition Zrotation Xrotation Yrotation
				JOINT Head
				{
					OFFSET 0.000000 0.000002 2.173893
					CHANNELS 6 Xposition Yposition Zposition Zrotation Xrotation Yrotation
					End Site
					{
						OFFSET 0.000000 0.000000 6.508102
					}
				}
			}
			JOINT LeftCollar
			{
				OFFSET 2.681599 -0.377600 5.432499
				CHANNELS 6 Xposition Yposition Zposition Zrotation Xrotation Yrotation
				JOINT LeftShoulder
				{
					OFFSET 5.161499 0.000000 0.000000
					CHANNELS 6 Xposition Yposition Zposition Zrotation Xrotation Yrotation
					JOINT LeftElbow
					{
						OFFSET 0.000000 0.000000 -10.869099
						CHANNELS 6 Xposition Yposition Zposition Zrotation Xrotation Yrotation
						JOINT LeftWrist
						{
							OFFSET 0.000000 0.000000 -13.344799
							CHANNELS 6 Xposition Yposition Zposition Zrotation Xrotation Yrotation
							End Site
							{
								OFFSET 0.000000 0.000000 -2.173901
							}
						}
					}
				}
			}
			JOINT RightCollar
			{
				OFFSET -2.381901 -1.419600 6.136600
				CHANNELS 6 Xposition Yposition Zposition Zrotation Xrotation Yrotation
				JOINT RightShoulder
				{
					OFFSET -4.550499 0.000000 0.000000
					CHANNELS 6 Xposition Yposition Zposition Zrotation Xrotation Yrotation
					JOINT RightElbow
					{
						OFFSET 0.000000 0.000000 -11.106499
						CHANNELS 6 Xposition Yposition Zposition Zrotation Xrotation Yrotation
						JOINT RightWrist
						{
							OFFSET 0.000000 0.000000 -12.874298
							CHANNELS 6 Xposition Yposition Zposition Zrotation Xrotation Yrotation
							End Site
							{
								OFFSET 0.000000 0.000000 -2.173901
							}
						}
					}
				}
			}
		}
	}
	JOINT LeftHip
	{
		OFFSET 2.431900 0.469601 -2.489399
		CHANNELS 6 Xposition Yposition Zposition Zrotation Xrotation Yrotation
		JOINT LeftKnee
		{
			OFFSET 0.000000 -0.000004 -18.200201
			CHANNELS 6 Xposition Yposition Zposition Zrotation Xrotation Yrotation
			JOINT LeftAnkle
			{
				OFFSET 0.000000 0.000000 -16.279900
				CHANNELS 6 Xposition Yposition Zposition Zrotation Xrotation Yrotation
				End Site
				{
					OFFSET 0.000000 -8.394100 0.000000
				}
			}
		}
	}
	JOINT RightHip
	{
		OFFSET -1.987999 -0.073502 -2.713001
		CHANNELS 6 Xposition Yposition Zposition Zrotation Xrotation Yrotation
		JOINT RightKnee
		{
			OFFSET 0.000000 -0.000004 -19.547802
			CHANNELS 6 Xposition Yposition Zposition Zrotation Xrotation Yrotation
			JOINT RightAnkle
			{
				OFFSET 0.000000 0.000000 -14.881199
				CHANNELS 6 Xposition Yposition Zposition Zrotation Xrotation Yrotation
				End Site
				{
					OFFSET 0.000000 -7.922699 0.000000
				}
			}
		}
	}
}
MOTION
Frames: 4
Frame Time: 0.041667
55.199501 -25.965595 39.847103 1405.199079 11.241101 -6.812183 -0.780002 1.005798 5.403090 1.093756 6.609345 0.324172 0.000001 -0.000001 4.236799 -0.573576 -4.321204 -0.613815 0.000005 0.000003 9.874404 -31.740634 0.431163 5.489851 0.000002 0.000000 2.173889 -3.339733 1.656703 -6.507780 2.681604 -0.377598 5.432498 -3.241405 1.827091 -0.403404 5.161510 0.000003 -0.000004 193.893265 -196.001772 155.149892 0.000002 0.000003 -10.869097 8.604501 0.853340 -3.033696 -0.000012 0.000002 -13.344790 -16.267735 17.384153 -61.309581 -2.381892 -1.419596 6.136595 5.165541 0.242492 -12.668785 -4.550504 0.000005 -0.000002 -163.815243 -201.455419 -156.239539 -0.000002 0.000002 -11.106501 -72.493005 0.225793 -7.073589 0.000001 0.000004 -12.874303 -166.320543 5.948547 -6.864253 2.431894 0.469592 -2.489399 33.117470 -36.271723 29.375114 0.000003 -0.000008 -18.200199 -88.474944 53.476341 56.563549 -0.000010 -0.000006 -16.279900 35.049341 13.226613 3.906730 -1.987998 -0.073501 -2.713003 -53.090142 -36.837276 -19.002703 0.000004 -0.000004 -19.547796 -710.032971 72.631999 20.996025 -0.000007 0.000002 -14.881201 517.852539 165.576777 202.111882
55.224804 -26.129601 39.941902 1405.559057 11.001388 -6.206676 -0.779992 1.005805 5.403096 -0.296819 6.171175 0.581109 0.000001 -0.000002 4.236794 -0.319727 -3.997511 -0.562279 0.000002 -0.000006 9.874403 -31.597411 1.897424 4.553942 0.000010 0.000008 2.173896 -3.960380 1.583733 -5.899817 2.681596 -0.377603 5.432504 -4.808395 2.105828 -0.007325 5.161508 0.000003 -0.000002 189.015254 -195.748222 159.920273 0.000002 0.000004 -10.869096 7.935853 0.934995 -3.023668 -0.000006 -0.000005 -13.344789 -14.914922 18.011392 -59.768028 -2.381900 -1.419609 6.136594 4.829759 -0.199095 -13.098936 -4.550492 0.000001 -0.000001 -168.675387 -195.556539 -153.647851 0.000002 -0.000004 -11.106502 -77.755229 0.173250 -3.831747 -0.000007 -0.000000 -12.874303 -151.234267 7.579588 -8.649221 2.431909 0.469604 -2.489393 32.068633 -36.050691 28.231899 0.000001 -0.000012 -18.200199 -86.408354 53.991102 55.040034 0.000006 0.000005 -16.279902 34.246183 13.386091 2.803508 -1.987991 -0.073490 -2.712995 -51.311069 -36.229226 -17.534672 -0.000005 -0.000006 -19.547798 -714.468987 71.046323 23.406425 -0.000005 0.000005 -14.881196 519.074706 165.311506 202.106554
55.234695 -26.207088 39.997005 1405.642877 10.857227 -6.107851 -0.780003 1.005793 5.403097 -0.613401 6.088290 0.858988 0.000006 0.000001 4.236793 -0.227238 -3.905037 -0.545844 -0.000002 -0.000001 9.874395 -31.769867 2.423258 4.239237 0.000000 0.000006 2.173890 -4.133983 1.705643 -5.890256 2.681598 -0.377596 5.432497 -5.794097 2.548062 0.281967 5.161491 -0.000001 0.000004 186.216830 -195.330488 161.810911 -0.000003 -0.000004 -10.869095 7.845382 0.956806 -3.029156 0.000006 0.000002 -13.344797 -14.040278 18.237321 -59.219707 -2.381901 -1.419596 6.136588 4.565764 -0.292047 -13.510459 -4.550502 0.000000 -0.000006 -170.297011 -193.112356 -152.569282 0.000001 0.000001 -11.106504 -79.711675 0.094225 -2.606272 0.000000 0.000002 -12.874292 -145.153295 8.056156 -8.787447 2.431895 0.469595 -2.489395 31.834815 -35.748449 27.834146 -0.000002 -0.000001 -18.200207 -85.184111 54.369511 54.097181 -0.000006 -0.000011 -16.279896 33.487352 13.355318 2.479548 -1.988009 -0.073503 -2.713000 -49.677557 -36.034022 -16.349566 -0.000001 -0.000001 -19.547798 -713.471233 70.761716 21.577257 -0.000004 0.000001 -14.881198 519.062903 165.240554 201.126368
55.229198 -26.279190 40.066399 1405.805272 10.613211 -6.008780 -0.780000 1.005805 5.403102 -1.303214 6.115481 1.234215 0.000007 -0.000002 4.236789 0.041437 -3.858858 -0.534691 0.000000 0.000000 9.874403 -31.809543 3.026927 3.743762 0.000008 0.000012 2.173892 -4.239191 1.624143 -5.659529 2.681604 -0.377597 5.432498 -7.186434 3.056477 0.427368 5.161491 -0.000004 0.000005 184.421869 -194.529921 163.516054 0.000005 0.000003 -10.869099 7.249190 1.076310 -3.177425 0.000004 0.000002 -13.344807 -13.724063 18.311585 -58.275959 -2.381894 -1.419596 6.136600 4.586271 -0.095647 -14.313254 -4.550497 0.000005 -0.000008 -172.032931 -190.456150 -151.230579 -0.000004 0.000001 -11.106504 -81.664405 -0.074636 -1.540267 0.000003 0.000000 -12.874305 -139.571746 8.455779 -9.009794 2.431903 0.469604 -2.489399 31.485659 -35.370869 27.294718 -0.000007 -0.000002 -18.200207 -83.571586 54.872162 52.907943 0.000001 0.000000 -16.279902 32.524777 13.366707 1.733624 -1.987997 -0.073498 -2.713001 -48.213940 -35.664673 -15.147650 -0.000004 -0.000004 -19.547794 -713.751107 70.179074 20.898847 0.000001 -0.000002 -14.881203 519.368568 165.137349 200.459359
